HIERARCHY
ROOT Hips
{
	OFFSET -6.585965 91.663933 257.982513
	CHANNELS 6 Xposition Yposition Zposition Xrotation Yrotation Zrotation 
	JOINT RightUpLeg
	{
		OFFSET 0.103457 1.857831 10.548505
		CHANNELS 3 Xrotation Yrotation Zrotation
		JOINT RightLeg
		{
			OFFSET 43.500000 -0.000038 -0.000004
			CHANNELS 3 Xrotation Yrotation Zrotation
			JOINT RightFoot
			{
				OFFSET 42.372208 0.000027 -0.000004
				CHANNELS 3 Xrotation Yrotation Zrotation
				JOINT RightToe
				{
					OFFSET 17.300005 0.000002 0.000002
					CHANNELS 3 Xrotation Yrotation Zrotation
					End Site
					{
						OFFSET 0.000000 0.000000 0.000000
					}
				}
			}
		}
	}
	JOINT LeftUpLeg
	{
		OFFSET 0.103462 1.857825 -10.548504
		CHANNELS 3 Xrotation Yrotation Zrotation
		JOINT LeftLeg
		{
			OFFSET 43.500042 -0.000027 0.000011
			CHANNELS 3 Xrotation Yrotation Zrotation
			JOINT LeftFoot
			{
				OFFSET 42.372265 -0.000015 0.000012
				CHANNELS 3 Xrotation Yrotation Zrotation
				JOINT LeftToe
				{
					OFFSET 17.299988 -0.000007 0.000010
					CHANNELS 3 Xrotation Yrotation Zrotation
					End Site
					{
						OFFSET 0.000000 0.000000 0.000000
					}
				}
			}
		}
	}
	JOINT Spine
	{
		OFFSET 6.901970 -2.603737 0.000000
		CHANNELS 3 Xrotation Yrotation Zrotation
		JOINT Spine1
		{
			OFFSET 12.588099 0.000007 0.000001
			CHANNELS 3 Xrotation Yrotation Zrotation
			JOINT Spine2
			{
				OFFSET 12.343201 0.000001 0.000000
				CHANNELS 3 Xrotation Yrotation Zrotation
				JOINT Neck
				{
					OFFSET 25.832897 -0.000008 -0.000001
					CHANNELS 3 Xrotation Yrotation Zrotation
					JOINT Head
					{
						OFFSET 11.766607 0.000021 0.000000
						CHANNELS 3 Xrotation Yrotation Zrotation
						End Site
						{
							OFFSET 0.000000 0.000000 0.000000
						}
					}
				}
				JOINT RightShoulder
				{
					OFFSET 19.745903 -1.480373 6.000104
					CHANNELS 3 Xrotation Yrotation Zrotation
					JOINT RightArm
					{
						OFFSET 11.284125 -0.000018 -0.000023
						CHANNELS 3 Xrotation Yrotation Zrotation
						JOINT RightForeArm
						{
							OFFSET 33.000050 0.000010 0.000034
							CHANNELS 3 Xrotation Yrotation Zrotation
							JOINT RightHand
							{
								OFFSET 25.200010 0.000001 -0.000001
								CHANNELS 3 Xrotation Yrotation Zrotation
								End Site
								{
									OFFSET 0.000000 0.000000 0.000000
								}
							}
						}
					}
				}
				JOINT LeftShoulder
				{
					OFFSET 19.746090 -1.480381 -6.000076
					CHANNELS 3 Xrotation Yrotation Zrotation
					JOINT LeftArm
					{
						OFFSET 11.284138 -0.000019 -0.000020
						CHANNELS 3 Xrotation Yrotation Zrotation
						JOINT LeftForeArm
						{
							OFFSET 33.000092 0.000024 0.000022
							CHANNELS 3 Xrotation Yrotation Zrotation
							JOINT LeftHand
							{
								OFFSET 25.199774 0.000133 0.000423
								CHANNELS 3 Xrotation Yrotation Zrotation
								End Site
								{
									OFFSET 0.000000 0.000000 0.000000
								}
							}
						}
					}
				}
			}
		}
	}
}
MOTION
Frames: 11
Frame Time: 0.033333
226.057098 89.490356 466.079895 87.964995 -7.110503 -42.272953 165.953366 -22.688908 147.038154 -33.878858 -3.376471 -35.855430 70.315124 23.558053 -7.090119 21.454562 0.003101 0.000016 -171.448758 3.895391 -158.930948 -17.603146 3.629445 11.923859 86.187145 -6.290676 11.394841 21.454551 -0.003094 -0.000002 8.478650 0.214391 -0.940200 6.940566 0.484662 -1.865887 6.622653 0.473251 -1.868775 -3.051016 0.342599 -7.214110 -4.978908 5.879967 -8.487243 140.144280 -70.158241 39.706489 -5.132428 52.778651 24.614781 -62.985307 -13.821586 2.164422 7.014338 -7.970761 33.347374 -179.074706 75.703385 2.342808 -21.300951 -55.999601 -20.669664 -83.299601 5.725769 -2.402021 7.628999 2.944395 -17.561098 
226.882599 89.858307 465.941101 87.472375 -6.518100 -44.438966 166.210140 -20.921491 156.339069 -35.088529 -3.088125 -32.694101 67.062779 21.038021 -7.999097 21.454558 0.003107 0.000016 -172.435407 4.615011 -159.640782 -18.097416 3.411005 11.237826 86.052727 -5.931764 10.649889 21.454553 -0.003099 -0.000002 8.650058 0.178513 -1.105097 7.283207 0.426118 -2.196781 6.965380 0.412692 -2.199317 -3.769961 0.600454 -6.589517 -4.475430 5.376336 -7.621342 140.638909 -70.060775 39.209435 -2.940773 54.353918 24.582754 -62.148035 -14.002170 2.144523 7.177619 -8.676131 34.349694 -178.097415 75.279797 3.335598 -22.334857 -54.519253 -19.319332 -82.343080 6.237600 -2.403848 8.974201 2.908495 -17.968003 
227.315002 90.290421 466.058014 86.647145 -5.742294 -47.249029 167.089964 -18.725408 166.675699 -37.502021 -3.542686 -26.695825 65.571510 16.779951 -7.747626 21.454557 0.003107 0.000019 -173.486245 6.142390 -160.894709 -18.721509 3.335032 10.404279 85.748743 -5.443548 10.009738 21.454551 -0.003085 -0.000002 8.798388 0.068616 -1.101101 7.581963 0.209131 -2.195316 7.264099 0.195740 -2.196537 -3.579914 0.771293 -5.973575 -4.392084 4.736959 -6.805364 140.177120 -70.308779 39.661064 -1.460778 56.315600 25.124053 -60.968816 -14.317198 2.121071 6.474101 -9.325144 35.260995 -178.272609 75.514981 3.160511 -22.973703 -53.820415 -17.732877 -81.362976 6.758862 -2.405903 10.225999 3.516690 -19.078508 
227.415405 90.643517 466.214386 86.106549 -5.136094 -50.648923 167.586532 -17.472107 175.460511 -41.226609 -5.288525 -20.780685 65.532551 13.255288 -5.545882 21.454558 0.003109 0.000019 -174.617119 7.620609 -162.525581 -19.191945 3.438228 9.362085 85.392739 -4.812545 9.365920 21.454551 -0.003109 -0.000002 8.865605 0.019082 -0.877100 7.717613 0.096563 -1.750951 7.399685 0.085843 -1.751505 -3.152560 0.917594 -5.447615 -3.365664 4.218642 -6.075221 138.984787 -70.675184 40.847513 0.151140 58.343394 26.734117 -60.545570 -14.797180 2.137763 5.231054 -10.198449 37.477060 -178.581798 75.877487 2.850392 -22.466581 -53.350491 -16.521741 -80.804457 7.167571 -2.408513 10.639606 4.553895 -21.410797 
227.302307 90.851173 466.374908 86.084153 -4.579104 -54.216061 167.240242 -16.842697 -179.806765 -45.123751 -6.485499 -16.859810 66.479973 10.315580 -5.945391 21.454558 0.003109 0.000015 -175.933160 8.658004 -164.432815 -19.316094 3.602833 8.375401 85.128274 -4.214873 8.797485 21.454550 -0.003082 0.000002 8.835265 0.095723 -0.621464 7.656419 0.232339 -1.235219 7.338413 0.224728 -1.236618 -2.872382 0.723651 -4.871036 -1.744863 3.679213 -5.375913 139.584888 -71.201239 40.194017 1.556775 59.737190 28.615433 -60.888923 -14.668589 2.141972 3.483402 -12.392649 39.440719 -178.654130 76.279102 2.783967 -22.043150 -52.444207 -15.813240 -80.172658 7.657381 -2.410115 10.271389 5.516600 -22.775802 
227.000793 90.887154 466.612701 86.309071 -3.910097 -56.964102 166.269713 -16.130086 -177.938517 -48.017842 -6.155169 -14.238654 68.404263 7.945113 -7.494014 21.454555 0.003109 0.000019 -177.281084 9.477406 -166.616645 -19.300086 3.993647 8.005570 85.039318 -4.005974 8.506688 21.454557 -0.003086 -0.000001 8.746912 0.229928 -0.561760 7.478631 0.495656 -1.107510 7.160577 0.488826 -1.110478 -2.290790 0.514956 -4.252517 -0.644243 3.354512 -4.725985 141.023790 -71.274800 38.721681 3.449303 60.109285 30.396965 -61.820636 -14.272504 2.150441 1.687709 -14.724549 40.827145 -178.456068 76.010914 2.981616 -22.094641 -50.520242 -15.786089 -79.071850 8.326736 -2.409139 9.740006 6.099795 -22.685702 
226.593903 90.868988 466.897308 86.554172 -3.153502 -58.976074 165.138852 -15.406999 -177.387745 -48.987630 -5.319564 -13.561816 70.766436 7.208653 -8.578340 21.454557 0.003108 0.000017 -178.484427 10.226801 -168.081257 -19.122247 4.264887 7.657803 84.937965 -3.776760 8.392248 21.454550 -0.003079 0.000004 8.673084 0.369778 -0.624825 7.329314 0.778342 -1.225043 7.011281 0.770787 -1.229724 -1.560481 0.017237 -3.695746 -0.368638 3.451650 -4.342054 141.955974 -71.310242 37.768385 4.851723 60.332523 31.182846 -62.714032 -14.081417 2.171699 0.523173 -15.434021 41.813667 -178.653201 75.811603 2.776206 -22.314949 -48.680172 -15.832146 -77.665487 9.092300 -2.402250 9.121408 7.206504 -22.434605 
226.114105 90.827202 467.159088 86.902792 -2.593699 -60.793957 164.356017 -15.087102 -177.592377 -47.989596 -4.443377 -13.477761 72.476831 7.148663 -8.833708 21.454563 0.003113 0.000016 -179.453740 10.717501 -169.295309 -18.789284 4.458626 7.286985 84.741167 -3.512184 8.358409 21.454555 -0.003086 0.000001 8.685857 0.528745 -0.637596 7.353267 1.096876 -1.240426 7.035189 1.089232 -1.247038 -1.409941 0.069883 -3.418356 -0.084332 3.004809 -3.953547 142.042499 -71.517675 37.664139 5.042071 60.431390 30.631629 -63.175978 -13.720272 2.164878 1.670218 -14.687516 41.324051 -178.282035 75.707094 3.154197 -22.707879 -47.310542 -15.573782 -75.894344 9.985872 -2.389152 8.585404 8.420396 -23.038296 
225.378693 90.764168 467.409302 87.097582 -2.013397 -62.656010 163.991667 -14.485592 -177.148852 -45.339400 -3.954036 -13.656462 74.110230 7.091418 -9.832938 21.454558 0.003107 0.000017 179.489831 11.555102 -170.289211 -18.861856 4.674307 6.688604 84.651794 -3.072402 8.449569 21.454553 -0.003092 -0.000001 8.713751 0.631161 -0.575814 7.408843 1.297851 -1.110191 7.090731 1.290978 -1.118012 -1.270183 0.265766 -3.229295 0.145851 2.419176 -3.586998 142.341211 -71.532933 37.358389 4.437046 60.043353 29.851086 -62.969010 -13.701379 2.155575 3.673215 -12.846086 39.656454 -178.866084 75.720208 2.556601 -22.335583 -46.541985 -15.279022 -74.031000 11.075212 -2.386369 8.601902 8.918303 -24.415297 
224.444901 90.665329 467.597992 87.282660 -1.516295 -64.501957 164.062455 -13.869705 -175.544386 -41.532423 -3.786835 -13.319064 75.619394 6.506115 -11.525398 21.454557 0.003105 0.000018 178.454279 12.357606 -170.904092 -19.153978 4.603590 5.868668 84.614234 -2.436018 8.745770 21.454553 -0.003096 -0.000001 8.747924 0.708006 -0.496414 7.477624 1.446564 -0.946209 7.159464 1.440685 -0.954926 -1.096426 0.297218 -2.980600 0.417265 2.161816 -3.276545 142.397601 -71.536423 37.300677 3.487702 59.517968 29.365770 -61.945082 -14.018091 2.137832 5.695194 -10.767255 37.867942 -179.976728 75.885492 1.423490 -21.484601 -46.130497 -15.106403 -72.393189 11.922689 -2.376855 9.531597 9.248705 -25.518490 
223.324997 90.533783 467.673706 87.442759 -1.071400 -65.980959 164.187762 -13.202502 -172.759649 -37.072764 -3.951354 -12.815985 76.591173 5.732209 -13.473130 21.454558 0.003113 0.000017 177.737286 13.145203 -171.623420 -19.265279 4.548574 5.338125 84.594044 -1.954725 9.277474 21.454555 -0.003089 0.000000 8.778461 0.757671 -0.504709 7.538268 1.546573 -0.959155 7.220081 1.540622 -0.968482 -1.021395 0.644155 -2.790174 0.675995 1.775639 -2.909785 141.747011 -71.909611 37.935222 2.642263 59.369616 29.147713 -60.452481 -14.366847 2.104969 7.081136 -9.395094 36.924272 179.429411 76.037033 0.819101 -20.824673 -45.916520 -15.165574 -70.855098 12.648629 -2.363601 10.840193 8.844101 -26.279604 
